<mxfile host="65bd71144e">
    <diagram id="p3kXUF4gtZHEfTqfOWHU" name="Page-1">
        <mxGraphModel dx="895" dy="656" grid="1" gridSize="10" guides="1" tooltips="1" connect="1" arrows="1" fold="1" page="1" pageScale="1" pageWidth="827" pageHeight="1169" math="0" shadow="0">
            <root>
                <mxCell id="0"/>
                <mxCell id="1" parent="0"/>
                <mxCell id="2" value="System" style="shape=umlLifeline;perimeter=lifelinePerimeter;whiteSpace=wrap;html=1;container=1;collapsible=0;recursiveResize=0;outlineConnect=0;" parent="1" vertex="1">
                    <mxGeometry x="540" y="180" width="100" height="470" as="geometry"/>
                </mxCell>
                <mxCell id="6" value="GET /users/{id}" style="html=1;verticalAlign=bottom;endArrow=block;" parent="2" edge="1">
                    <mxGeometry width="80" relative="1" as="geometry">
                        <mxPoint x="-350.33333333333326" y="70.00000000000011" as="sourcePoint"/>
                        <mxPoint x="49.50000000000023" y="70.00000000000011" as="targetPoint"/>
                        <Array as="points">
                            <mxPoint x="-40" y="70"/>
                        </Array>
                    </mxGeometry>
                </mxCell>
                <mxCell id="7" value="Donne accès au détail de l'utilisateur (200)" style="html=1;verticalAlign=bottom;endArrow=open;dashed=1;endSize=8;" parent="2" edge="1">
                    <mxGeometry relative="1" as="geometry">
                        <mxPoint x="49.5" y="150" as="sourcePoint"/>
                        <mxPoint x="-350.5" y="150" as="targetPoint"/>
                        <Array as="points">
                            <mxPoint x="-40" y="150"/>
                            <mxPoint x="-260" y="150"/>
                        </Array>
                    </mxGeometry>
                </mxCell>
                <mxCell id="25" value="" style="line;strokeWidth=1;align=left;verticalAlign=middle;spacingTop=-1;spacingLeft=3;spacingRight=3;rotatable=0;labelPosition=right;points=[];portConstraint=eastwest;labelBackgroundColor=#F4F1DE;rounded=0;" vertex="1" parent="2">
                    <mxGeometry x="-370" y="379" width="440" height="8" as="geometry"/>
                </mxCell>
                <mxCell id="27" value="Renvoie une erreur (500)" style="html=1;verticalAlign=bottom;endArrow=open;dashed=1;endSize=8;" edge="1" parent="2">
                    <mxGeometry relative="1" as="geometry">
                        <mxPoint x="50" y="429" as="sourcePoint"/>
                        <mxPoint x="-350" y="429" as="targetPoint"/>
                        <Array as="points">
                            <mxPoint x="-9.5" y="429"/>
                        </Array>
                        <mxPoint as="offset"/>
                    </mxGeometry>
                </mxCell>
                <mxCell id="13" value="" style="line;strokeWidth=1;align=left;verticalAlign=middle;spacingTop=-1;spacingLeft=3;spacingRight=3;rotatable=0;labelPosition=right;points=[];portConstraint=eastwest;labelBackgroundColor=#F4F1DE;rounded=0;" parent="2" vertex="1">
                    <mxGeometry x="-370" y="310" width="440" height="8" as="geometry"/>
                </mxCell>
                <mxCell id="15" value="&lt;span style=&quot;color: rgb(240, 240, 240); font-family: Helvetica; font-size: 12px; font-style: normal; font-variant-ligatures: normal; font-variant-caps: normal; font-weight: 700; letter-spacing: normal; orphans: 2; text-align: center; text-indent: 0px; text-transform: none; widows: 2; word-spacing: 0px; -webkit-text-stroke-width: 0px; background-color: rgb(42, 37, 47); text-decoration-thickness: initial; text-decoration-style: initial; text-decoration-color: initial; float: none; display: inline !important;&quot;&gt;[L'utilisateur n'existe pas]&lt;/span&gt;" style="text;whiteSpace=wrap;html=1;" parent="2" vertex="1">
                    <mxGeometry x="-227.5" y="310" width="155" height="40" as="geometry"/>
                </mxCell>
                <mxCell id="14" value="Renvoie une erreur (404)" style="html=1;verticalAlign=bottom;endArrow=open;dashed=1;endSize=8;" parent="2" edge="1">
                    <mxGeometry relative="1" as="geometry">
                        <mxPoint x="50" y="359" as="sourcePoint"/>
                        <mxPoint x="-350" y="359" as="targetPoint"/>
                        <Array as="points">
                            <mxPoint x="-9.5" y="359"/>
                        </Array>
                        <mxPoint as="offset"/>
                    </mxGeometry>
                </mxCell>
                <mxCell id="3" value="" style="shape=umlLifeline;participant=umlActor;perimeter=lifelinePerimeter;whiteSpace=wrap;html=1;container=1;collapsible=0;recursiveResize=0;verticalAlign=top;spacingTop=36;outlineConnect=0;fontStyle=1" parent="1" vertex="1">
                    <mxGeometry x="180" y="180" width="20" height="470" as="geometry"/>
                </mxCell>
                <mxCell id="8" value="Client" style="text;html=1;strokeColor=none;fillColor=none;align=center;verticalAlign=middle;whiteSpace=wrap;rounded=0;" parent="1" vertex="1">
                    <mxGeometry x="160" y="150" width="60" height="30" as="geometry"/>
                </mxCell>
                <mxCell id="9" value="Client" style="shape=umlActor;verticalLabelPosition=bottom;verticalAlign=top;html=1;outlineConnect=0;" parent="1" vertex="1">
                    <mxGeometry x="177.5" y="650" width="25" height="40" as="geometry"/>
                </mxCell>
                <mxCell id="10" value="&lt;span style=&quot;&quot;&gt;System&lt;/span&gt;" style="html=1;" parent="1" vertex="1">
                    <mxGeometry x="540" y="650" width="105" height="45" as="geometry"/>
                </mxCell>
                <mxCell id="11" value="Alt" style="shape=umlFrame;whiteSpace=wrap;html=1;width=66;height=30;" parent="1" vertex="1">
                    <mxGeometry x="169.99" y="280" width="440.01" height="350" as="geometry"/>
                </mxCell>
                <mxCell id="16" value="" style="line;strokeWidth=1;align=left;verticalAlign=middle;spacingTop=-1;spacingLeft=3;spacingRight=3;rotatable=0;labelPosition=right;points=[];portConstraint=eastwest;labelBackgroundColor=#F4F1DE;rounded=0;" vertex="1" parent="1">
                    <mxGeometry x="170" y="350" width="440" height="8" as="geometry"/>
                </mxCell>
                <mxCell id="12" value="&lt;span style=&quot;color: rgb(240, 240, 240); font-family: Helvetica; font-size: 12px; font-style: normal; font-variant-ligatures: normal; font-variant-caps: normal; font-weight: 700; letter-spacing: normal; orphans: 2; text-align: center; text-indent: 0px; text-transform: none; widows: 2; word-spacing: 0px; -webkit-text-stroke-width: 0px; background-color: rgb(42, 37, 47); text-decoration-thickness: initial; text-decoration-style: initial; text-decoration-color: initial; float: none; display: inline !important;&quot;&gt;[l'utilisateur existe]&lt;/span&gt;" style="text;whiteSpace=wrap;html=1;" parent="1" vertex="1">
                    <mxGeometry x="330" y="280" width="120" height="40" as="geometry"/>
                </mxCell>
                <mxCell id="17" value="&lt;span style=&quot;color: rgb(240, 240, 240); font-family: Helvetica; font-size: 12px; font-style: normal; font-variant-ligatures: normal; font-variant-caps: normal; font-weight: 700; letter-spacing: normal; orphans: 2; text-align: center; text-indent: 0px; text-transform: none; widows: 2; word-spacing: 0px; -webkit-text-stroke-width: 0px; background-color: rgb(42, 37, 47); text-decoration-thickness: initial; text-decoration-style: initial; text-decoration-color: initial; float: none; display: inline !important;&quot;&gt;[Token non valide ou non existant]&lt;/span&gt;" style="text;whiteSpace=wrap;html=1;" vertex="1" parent="1">
                    <mxGeometry x="288.12" y="350" width="203.75" height="40" as="geometry"/>
                </mxCell>
                <mxCell id="18" value="Renvoie une erreur (401)" style="html=1;verticalAlign=bottom;endArrow=open;dashed=1;endSize=8;" edge="1" parent="1">
                    <mxGeometry relative="1" as="geometry">
                        <mxPoint x="590" y="400" as="sourcePoint"/>
                        <mxPoint x="190" y="400" as="targetPoint"/>
                        <Array as="points">
                            <mxPoint x="530.5" y="400"/>
                        </Array>
                        <mxPoint as="offset"/>
                    </mxGeometry>
                </mxCell>
                <mxCell id="22" value="" style="line;strokeWidth=1;align=left;verticalAlign=middle;spacingTop=-1;spacingLeft=3;spacingRight=3;rotatable=0;labelPosition=right;points=[];portConstraint=eastwest;labelBackgroundColor=#F4F1DE;rounded=0;" vertex="1" parent="1">
                    <mxGeometry x="169.99" y="420" width="440" height="8" as="geometry"/>
                </mxCell>
                <mxCell id="23" value="&lt;span style=&quot;color: rgb(240, 240, 240); font-family: Helvetica; font-size: 12px; font-style: normal; font-variant-ligatures: normal; font-variant-caps: normal; font-weight: 700; letter-spacing: normal; orphans: 2; text-align: center; text-indent: 0px; text-transform: none; widows: 2; word-spacing: 0px; -webkit-text-stroke-width: 0px; background-color: rgb(42, 37, 47); text-decoration-thickness: initial; text-decoration-style: initial; text-decoration-color: initial; float: none; display: inline !important;&quot;&gt;[Le client n'a pas accès à cette ressource]&lt;/span&gt;" style="text;whiteSpace=wrap;html=1;" vertex="1" parent="1">
                    <mxGeometry x="269.05" y="420" width="241.89" height="40" as="geometry"/>
                </mxCell>
                <mxCell id="24" value="Renvoie une erreur (403)" style="html=1;verticalAlign=bottom;endArrow=open;dashed=1;endSize=8;" edge="1" parent="1">
                    <mxGeometry relative="1" as="geometry">
                        <mxPoint x="589.99" y="470" as="sourcePoint"/>
                        <mxPoint x="189.99" y="470" as="targetPoint"/>
                        <Array as="points">
                            <mxPoint x="530.49" y="470"/>
                        </Array>
                        <mxPoint as="offset"/>
                    </mxGeometry>
                </mxCell>
                <mxCell id="26" value="&lt;span style=&quot;color: rgb(240, 240, 240); font-family: Helvetica; font-size: 12px; font-style: normal; font-variant-ligatures: normal; font-variant-caps: normal; font-weight: 700; letter-spacing: normal; orphans: 2; text-align: center; text-indent: 0px; text-transform: none; widows: 2; word-spacing: 0px; -webkit-text-stroke-width: 0px; background-color: rgb(42, 37, 47); text-decoration-thickness: initial; text-decoration-style: initial; text-decoration-color: initial; float: none; display: inline !important;&quot;&gt;[Le serveur a rencontré un problème]&lt;/span&gt;" style="text;whiteSpace=wrap;html=1;" vertex="1" parent="1">
                    <mxGeometry x="279.53" y="559" width="220.94" height="31" as="geometry"/>
                </mxCell>
            </root>
        </mxGraphModel>
    </diagram>
</mxfile>